<?xml version="1.0" encoding="utf-8"?>
<COLLADA xmlns="http://www.collada.org/2005/11/COLLADASchema" version="1.4.1" xmlns:xsi="http://www.w3.org/2001/XMLSchema-instance">
  <asset>
    <contributor>
      <author>Blender User</author>
      <authoring_tool>Blender 2.90.1 commit date:2020-09-23, commit time:06:43, hash:3e85bb34d0d7</authoring_tool>
    </contributor>
    <created>2021-02-01T00:25:36</created>
    <modified>2021-02-01T00:25:36</modified>
    <unit name="meter" meter="1"/>
    <up_axis>Z_UP</up_axis>
  </asset>
  <library_effects>
    <effect id="deri-effect">
      <profile_COMMON>
        <newparam sid="hero_texture_png-surface">
          <surface type="2D">
            <init_from>hero_texture_png</init_from>
          </surface>
        </newparam>
        <newparam sid="hero_texture_png-sampler">
          <sampler2D>
            <source>hero_texture_png-surface</source>
          </sampler2D>
        </newparam>
        <technique sid="common">
          <lambert>
            <emission>
              <color sid="emission">0 0 0 1</color>
            </emission>
            <diffuse>
              <texture texture="hero_texture_png-sampler" texcoord="UVMap"/>
            </diffuse>
            <index_of_refraction>
              <float sid="ior">1.45</float>
            </index_of_refraction>
          </lambert>
        </technique>
      </profile_COMMON>
    </effect>
    <effect id="ayaaqabi_alt-effect">
      <profile_COMMON>
        <newparam sid="hero_texture_png-surface">
          <surface type="2D">
            <init_from>hero_texture_png</init_from>
          </surface>
        </newparam>
        <newparam sid="hero_texture_png-sampler">
          <sampler2D>
            <source>hero_texture_png-surface</source>
          </sampler2D>
        </newparam>
        <technique sid="common">
          <lambert>
            <emission>
              <color sid="emission">0 0 0 1</color>
            </emission>
            <diffuse>
              <texture texture="hero_texture_png-sampler" texcoord="UVMap"/>
            </diffuse>
            <index_of_refraction>
              <float sid="ior">1.45</float>
            </index_of_refraction>
          </lambert>
        </technique>
      </profile_COMMON>
    </effect>
    <effect id="short-effect">
      <profile_COMMON>
        <newparam sid="hero_texture_png-surface">
          <surface type="2D">
            <init_from>hero_texture_png</init_from>
          </surface>
        </newparam>
        <newparam sid="hero_texture_png-sampler">
          <sampler2D>
            <source>hero_texture_png-surface</source>
          </sampler2D>
        </newparam>
        <technique sid="common">
          <lambert>
            <emission>
              <color sid="emission">0 0 0 1</color>
            </emission>
            <diffuse>
              <texture texture="hero_texture_png-sampler" texcoord="UVMap"/>
            </diffuse>
            <index_of_refraction>
              <float sid="ior">1.45</float>
            </index_of_refraction>
          </lambert>
        </technique>
      </profile_COMMON>
    </effect>
    <effect id="ayaqqabi_ust-effect">
      <profile_COMMON>
        <newparam sid="hero_texture_png-surface">
          <surface type="2D">
            <init_from>hero_texture_png</init_from>
          </surface>
        </newparam>
        <newparam sid="hero_texture_png-sampler">
          <sampler2D>
            <source>hero_texture_png-surface</source>
          </sampler2D>
        </newparam>
        <technique sid="common">
          <lambert>
            <emission>
              <color sid="emission">0 0 0 1</color>
            </emission>
            <diffuse>
              <texture texture="hero_texture_png-sampler" texcoord="UVMap"/>
            </diffuse>
            <index_of_refraction>
              <float sid="ior">1.45</float>
            </index_of_refraction>
          </lambert>
        </technique>
      </profile_COMMON>
    </effect>
  </library_effects>
  <library_images>
    <image id="hero_texture_png" name="hero_texture_png">
      <init_from>hero%20texture.png</init_from>
    </image>
  </library_images>
  <library_materials>
    <material id="deri-material" name="deri">
      <instance_effect url="#deri-effect"/>
    </material>
    <material id="ayaaqabi_alt-material" name="ayaaqabi alt">
      <instance_effect url="#ayaaqabi_alt-effect"/>
    </material>
    <material id="short-material" name="short">
      <instance_effect url="#short-effect"/>
    </material>
    <material id="ayaqqabi_ust-material" name="ayaqqabi ust">
      <instance_effect url="#ayaqqabi_ust-effect"/>
    </material>
  </library_materials>
  <library_geometries>
    <geometry id="Cube_001-mesh" name="Cube.001">
      <mesh>
        <source id="Cube_001-mesh-positions">
          <float_array id="Cube_001-mesh-positions-array" count="417">1.063398 -0.09771275 0.2367026 0.9684414 -0.05759525 1.248913 0.9223561 -0.2344954 0.3426887 0.7567647 -0.2798626 1.18613 0.8974599 0.01326227 0.4307189 0.7105683 0.07494753 1.245242 0.7952349 -0.120257 0.2367026 0.5237224 -0.08568769 1.228218 0.8318488 -0.1871547 1.591418 0.6841037 -0.4102407 1.582055 0.5391361 -0.2097545 1.573249 0.6843104 -0.01641315 1.58208 0.7744078 -0.2738584 2.316211 0.514542 -0.6062664 2.285732 0.2546216 -0.3321923 2.255155 0.5145419 0.004163086 2.285732 0.4880734 -0.2987411 3.118366 0.2864413 -0.5733687 2.92453 0 -0.298741 2.730693 0.2864412 -0.02411341 2.92453 0.9694565 -0.08341103 0.8187891 0.8360682 -0.2324271 0.7862381 0.6976209 -0.08554512 0.8149406 0.8234641 0.08127504 0.9079697 0.9584729 -0.257014 -0.02123165 1.124796 -0.07933092 -0.02870059 0.7645351 -0.1213332 -0.02870059 0.9319845 0.06205487 -0.02870053 0.9693281 -0.48896 0.1317963 1.094053 -0.3792085 0.1540204 0.8258903 -0.4017526 0.1540204 1.000428 -0.7459693 -0.02870053 1.184282 -0.6514107 -0.02870053 0.8044106 -0.693413 -0.02870053 1.106209 -0.09534001 0.1220762 0.9236634 0.0639522 0.1220762 0.7730913 -0.1341778 0.1220762 1.170621 -0.6726934 0.06895601 0.8193691 -0.7115309 0.06895601 1.003154 -0.7819513 0.06895601 0.436798 -0.3493993 3.340474 0 -0.658097 3.246827 0 -0.08015888 3.417992 0.4067663 -0.3755679 3.554275 0 -0.6635051 3.563752 0 -0.1271728 3.592324 0.415737 -0.3722209 3.825366 0 -0.665627 3.855829 0 -0.05173629 3.878075 0.5756132 -0.256716 4.27874 0 -0.6881532 4.380599 0 0.1240797 4.460719 0 0.08118629 4.18536 0.5247763 -0.333597 4.045214 0 -0.7235122 4.07806 0.6191715 -0.2578948 4.661446 0 -0.5339133 4.626175 0.2060465 -0.2363095 4.889986 0 0.05337834 4.764254 0 -0.559791 2.853336 0 -0.001018047 3.10452 0.3565873 -0.1931374 4.804649 0 -0.3630433 4.755508 0 -0.4372792 4.93776 0 0.01324218 4.8259 0 -0.3999334 4.847245 0 -0.05490988 4.937611 0.2087747 -0.2830794 4.999079 0.1631069 -0.2736554 4.980501 0 -0.09225571 5.028126 0 -0.5441864 5.674397 0 -0.2674841 5.717577 0.2291743 -0.2735984 5.654211 0 -0.01063394 5.636131 0 -0.05445343 5.138236 0 -0.6011054 4.863453 0 0.05848711 5.361565 0.3049809 -0.3163612 5.276328 0 -0.6756546 5.145659 0.1594355 -0.07641047 5.641038 0.1983876 -0.1985766 5.197739 0.1145873 -0.1361938 5.004313 0.176971 -0.05391627 5.370791 0.7088744 -0.1632508 4.725883 0.1782935 -0.09894043 4.816432 0.1145873 -0.09884804 4.913798 0.1145871 -0.4008035 4.95913 0.1782937 -0.3234265 4.77504 0.1726463 -0.4990396 4.92396 0.1145871 -0.3634577 4.868615 0.4374738 -0.4828118 4.65685 0.1862667 -0.5462394 5.181947 0.1726463 -0.4780676 5.669465 0.105425 -0.2695431 5.696237 0 0.06804382 5.480338 0.2903221 -0.2958205 5.46527 0 -0.6354478 5.43303 0.1682032 -0.02802944 5.487405 0.1814141 -0.5300174 5.456826 0.2833899 -0.6270143 4.342924 0.5002539 0.02299338 4.36316 0.4146083 -0.08579194 4.133781 0.2575206 -0.1854335 3.568235 0.2183989 -0.1437511 3.379233 0.3030332 -0.1897142 3.857836 0.1502757 -0.6817813 4.071798 0.2655346 -0.5837674 3.29365 0.2505187 -0.6005321 3.791221 0.2505187 -0.5995557 3.532222 0.9865599 -0.229951 3.755192 1.141044 -0.1217957 3.792043 0.9528599 -0.05772477 3.663835 1.107345 0.05043214 3.701447 0.5439072 0.1156945 4.68673 0.776688 -0.3299469 4.113416 0.9813553 -0.1617605 4.23525 0.7567358 -0.06329059 3.963968 0.9614034 0.1056702 4.086334 1.106982 -0.4003687 3.548067 1.353919 -0.2602199 3.611033 1.023057 -0.1798009 3.374791 1.269996 -0.03581309 3.437591 1.429364 -0.6276294 3.014311 1.528275 -0.5911815 2.993063 1.39081 -0.5715327 2.931064 1.489721 -0.535085 2.909816 1.609263 -0.9339871 2.582957 1.6751 -0.8547621 2.547669 1.643703 -0.7292634 2.487915 1.591182 -0.8084881 2.523203 1.523326 -0.6964597 2.749562 1.502376 -0.9003816 2.90337 1.68105 -0.7760778 2.843691 1.594263 -0.5721564 2.689883 0.4537259 -0.3326751 3.267148 0 -0.6426286 3.103588 0 -0.05403155 3.314503 0.2724367 -0.5803344 3.17179 0.2408623 -0.1042543 3.229118</float_array>
          <technique_common>
            <accessor source="#Cube_001-mesh-positions-array" count="139" stride="3">
              <param name="X" type="float"/>
              <param name="Y" type="float"/>
              <param name="Z" type="float"/>
            </accessor>
          </technique_common>
        </source>
        <source id="Cube_001-mesh-normals">
          <float_array id="Cube_001-mesh-normals-array" count="732">0.7362462 -0.673476 0.06611829 -0.7308488 -0.6455931 -0.2215166 -0.7128418 0.6638599 -0.2261562 0.7372311 0.6745288 -0.0387448 0.6572497 0.7531964 0.02679437 -0.6523354 0.7428134 0.1506217 -0.7781445 0.5936538 -0.2051009 0.833947 -0.5511116 -0.0284335 0.6499212 0.5879387 0.4815917 -0.6470442 -0.7262248 -0.2322314 0.6792773 0.6848621 0.2637165 0.7869096 -0.6168118 0.01779055 0.7457826 0.6519312 0.137092 -0.7327406 -0.5475769 -0.4040432 -0.5748302 -0.7781629 -0.2530474 -0.7566654 0.6068359 -0.2433265 0.7394005 -0.6051051 0.295186 0.6173678 0.7825546 0.08040791 -0.6619772 0.7331605 -0.1557621 -0.6382055 -0.7673922 -0.06167042 0.7404004 -0.6583328 0.135666 -0.01826894 -0.02491384 -0.9995227 -0.9867298 -0.09143638 0.1341779 0.04045271 0.002819597 -0.9991776 -0.7924768 0.6022552 0.09627681 -0.3393636 -0.8856824 -0.3168582 0.4535604 -0.8818782 -0.12874 0.797702 0.03359574 0.6021154 -0.2802574 -0.6426767 0.7130375 0.6772803 -0.1384818 0.7225748 -0.007523059 0.01462757 -0.9998648 0.9858787 0.1025139 0.1324171 0.06018644 -0.2633626 0.9628177 -0.08360433 -0.2181933 0.9723179 -0.7936193 0.6031235 0.08006536 -0.9643426 -0.165646 0.2064092 0.6802788 0.7118381 0.1746637 0.6805222 0.6645388 0.308671 0.7849665 0.6186257 -0.03361308 0.245348 -0.969294 -0.01654011 0.779829 0.5987023 0.1828182 0.2497836 -0.9682762 -0.00703448 0.2702143 -0.9562911 0.1117658 0.8109052 0.4800909 -0.3345826 0.721666 0.5257661 -0.4502981 0.2500247 -0.9369758 -0.2440575 0.04670476 -0.60286 0.7964788 0.2456417 -0.8208806 0.5155729 0.2006369 -0.4165692 -0.8866876 -0.3120002 0.7431853 -0.5918881 0.3158318 0.496681 0.8084296 0.2144098 -0.6803587 0.7008143 0.8455399 0.2136908 0.4892838 0.3428064 -0.8715751 -0.3504863 0.8900783 0.3858347 0.2426777 0.3432009 -0.8682619 -0.3582379 0.09492862 0.3009003 0.9489191 0.4452149 -0.837554 0.3166811 0.07475906 0.4119101 -0.9081526 0.4116357 0.2946866 -0.8623897 0.5514746 -0.8065252 -0.2130563 0.7898048 0.5782086 -0.204654 0.586312 0.8100531 0.007239758 0.4969716 0.8649715 -0.06959688 0.5083549 0.7684689 -0.3886271 0.397907 0.8480761 0.3499099 0.3993375 0.7826529 0.4774769 0.08279287 0.4083191 0.909077 0.7611336 -0.5920245 0.2649203 -0.01268577 0.3303959 -0.9437572 0.9329014 -0.3329092 -0.1373556 0.1540266 -0.4145999 0.8968738 0.8842483 -0.3151354 -0.3446663 0.899066 -0.4222601 0.1156582 0.321711 0.1759325 0.9303494 0.320982 -0.01809996 0.9469124 0.1968439 -0.06216394 0.9784621 0.7988729 0.5064604 -0.3244996 0.9177752 -0.2295599 0.3240234 0.3560349 0.8853079 0.2991138 0.551474 -0.8261451 0.1155884 0.9017897 0.4315605 0.02304738 0.7756139 -0.6247295 -0.09020155 0.1672557 0.9741653 -0.1517486 0.2322096 0.9588432 0.1633968 0.3049883 0.8740829 -0.3781023 0.3897311 0.8904232 -0.2350665 0.7872538 -0.615831 0.03136312 0.8194586 -0.5729757 0.01365828 0.8113652 -0.5842098 -0.01963627 0.6817743 -0.7308651 0.03193718 0.7973464 -0.6017019 0.04683887 0.1349794 0.9475579 -0.2896801 -0.4942258 0.812989 -0.3078793 -0.8821024 -0.4485812 -0.143772 -0.7568378 -0.361727 -0.5443804 0.8974664 0.3297215 0.2929809 0.7709822 0.3527708 0.5302257 -0.6643676 -0.4026213 -0.6296919 -0.4048556 0.8047813 -0.4340727 0.5866315 -0.8008956 0.1201243 -0.1927548 0.6508473 -0.734332 0.8394578 0.3724253 0.3957401 -0.3679121 0.8212086 -0.4361848 0.1891418 -0.6599423 0.7271187 -0.9445433 -0.1303094 -0.3014258 -0.7110033 -0.6899787 -0.1356602 0.3915265 -0.7606304 0.5178307 0.8756367 0.4754 -0.08517807 0.2248719 -0.9739688 -0.02859383 0.5721507 -0.7570554 0.3154534 0.02847838 -0.426367 -0.9041019 0.791485 -0.5944404 0.1420991 0.9654029 0.2583557 0.0353533 -0.8638039 0.297856 -0.4063552 -0.3751863 0.6126595 -0.6956175 0.6560061 0.7308011 0.1886417 0.4745091 -0.281664 0.8339704 -0.9445672 -0.1302661 -0.3013699 0.2263544 -0.9739354 -0.01461637 0.2775872 0.9314735 0.2351647 0.3097358 0.9218962 0.2327469 0.2714633 -0.9623773 -0.01173639 0.8017119 -0.5956807 0.04921948 0.6696848 0.6754631 0.3086615 0.7173098 -0.6953996 0.04343032 -0.6445593 -0.7147383 -0.2714636 -0.6160076 0.7439634 -0.2589465 0.4488601 0.8779122 0.1667182 0.5840454 0.7964788 0.156565 -0.7811979 0.5755333 0.2418498 -0.7644175 0.6097481 -0.2094593 0.720371 -0.6931349 0.02509486 0.4375308 0.8586491 0.2669993 -0.7595394 -0.5634801 -0.3249464 0.6871338 0.6724236 0.2751252 0.8337343 -0.5521658 2.17887e-5 0.7136695 0.6837497 0.1521912 -0.6615558 -0.6658707 -0.3449062 -0.6968463 -0.6846857 -0.2135671 -0.5237156 0.7830462 -0.3355005 0.7004483 -0.6759459 0.2290617 0.7543697 0.6560302 0.02347147 -0.7225006 0.6599459 -0.2060694 -0.7340368 -0.6645855 -0.1397002 0.7215943 -0.6772731 0.1435369 0.02348804 -0.02144658 -0.9994941 -0.9963007 -0.06944477 0.05062144 0.004191398 0.0156328 -0.9998691 -0.737576 0.6734709 -0.0491802 -0.256489 -0.9566174 -0.1381909 0.5198318 -0.7967782 -0.3080901 0.9367984 -7.46495e-4 0.3498689 -0.7457427 -0.2612319 0.6128832 0.3559196 -0.5564997 0.7507525 -0.04038286 -0.004199087 -0.9991755 0.9828158 0.09508949 0.1582125 0.1265875 -0.1940284 0.9727942 -0.01143592 -0.2645546 0.964303 -0.8121261 0.5828673 0.02677857 -0.8689333 -0.1139625 0.4816302 0.6361494 0.7290158 0.2526857 0.6785669 0.6789982 0.2801936 0.8344132 0.5371947 -0.1231927 0.2768056 -0.9598196 -0.04609745 0.6871107 0.7263308 0.01795876 0.2469031 -0.9690334 -0.00365293 0.2211924 -0.9712879 0.08760005 0.8055756 0.3592415 -0.4711619 0.725497 0.4938547 -0.4793348 0.1954791 -0.9584594 -0.2077102 0.01125746 -0.5837246 0.8118737 0.08062309 -0.9201764 0.3831127 0.7597991 0.4194782 0.4967328 0.1918181 0.2441677 0.9505725 0.8301018 0.5154613 0.2126755 0.2356598 -0.9411736 -0.2421919 0.9272971 0.3386179 0.1595563 0.3431987 -0.8682627 -0.3582383 0.1977226 0.2178637 0.9557412 0.3534283 -0.9052708 0.2357401 0.05670416 0.3660646 -0.9288603 0.8243419 0.5351687 -0.1845405 0.5845656 -0.792077 -0.1757757 0.2831055 0.9071192 -0.3114259 0.5358847 0.831856 -0.1443716 0.607544 0.6447963 -0.463819 0.397909 0.8480754 0.3499094 0.5143439 0.7891136 0.3357831 0.4861104 0.7323539 0.4768171 0.1920208 0.2468798 0.9498308 0.4744569 -0.7529172 0.456077 0.3787543 0.01101547 -0.9254317 0.7940683 -0.5933477 0.1318868 0.3876657 -0.3307573 0.8604156 0.987367 -0.1382478 -0.07742059 0.880297 -0.472432 0.04342108 0.08695018 -0.1536037 0.9842996 0.8958891 -0.4216579 0.1399556 0.4406713 0.801285 0.4046618 0.4956829 -0.8664367 0.05988353 0.9088404 0.4164467 -0.02411365 0.7738603 -0.6266411 -0.09198439 0.2714601 0.8264188 -0.4932965 0.3110974 0.9175965 0.2474573 0.3450556 0.8237997 -0.4497674 0.2188385 0.9755567 -0.0199716 0.6631067 -0.7268719 -0.1787369 0.8029317 -0.5947282 0.0399909 0.8202637 -0.5719816 -0.002156019 0.793456 -0.5292387 -0.3005562 0.7961995 -0.6043828 0.02806991 -0.07900291 0.9708847 0.2261449 -0.4920158 0.8159113 -0.3036597 -0.9589645 -0.2542263 -0.1255238 -0.7580235 -0.4151581 -0.5030351 0.900459 0.260943 0.347969 0.7539708 0.5048837 0.4202623 -0.8459985 -0.06833475 -0.5287882 -0.3011274 0.9266917 -0.2248665 0.5492241 -0.8265202 0.1233586 -0.3717795 0.5921439 -0.7149446 0.7137178 0.5754999 0.3992578 -0.41069 0.7611618 -0.5019628 0.2878881 -0.650635 0.7027052 -0.9586794 -0.2225197 -0.1772539 -0.8288176 -0.5048546 -0.2412118 0.3142609 -0.7901391 0.5262321 0.9210899 0.3856815 0.05332142 0.2409598 -0.7443659 0.6227823 0.03045183 -0.4234755 -0.9053957 0.6095618 -0.7412317 0.2810873 0.9410534 0.3217338 -0.1044316 -0.8197235 0.3372109 -0.4629711 -0.8512755 0.2697021 -0.4501011 0.8307348 0.5142713 0.2130839 0.3016267 -0.2888378 0.9086221 -0.7487878 -0.6559345 -0.0952202 0.03308731 -0.9488214 -0.3140751 0.2514247 0.9261 0.281291 0.2911469 0.9135712 0.2839387 0.2463755 -0.9635722 -0.104057 0.8013136 -0.597563 0.02855175 0.6680148 0.688958 0.2812353</float_array>
          <technique_common>
            <accessor source="#Cube_001-mesh-normals-array" count="244" stride="3">
              <param name="X" type="float"/>
              <param name="Y" type="float"/>
              <param name="Z" type="float"/>
            </accessor>
          </technique_common>
        </source>
        <source id="Cube_001-mesh-map-0">
          <float_array id="Cube_001-mesh-map-0-array" count="1464">0.2099339 0.789374 0.2224868 0.7760747 0.2194091 0.7901086 0.3001619 0.7789221 0.2876271 0.7754879 0.295701 0.7718162 0.2684044 0.6833183 0.2579717 0.6972575 0.2578852 0.6849479 0.190051 0.6896239 0.1777971 0.69974 0.1806725 0.6852671 0.7723496 0.1176164 0.7767122 0.1163704 0.7763546 0.118217 0.2693576 0.6988463 0.2582369 0.7084057 0.2579717 0.6972575 0.8449966 0.7218018 0.819029 0.7652509 0.8245467 0.7193887 0.2224868 0.7760747 0.2157996 0.7623353 0.228222 0.7622914 0.1777971 0.69974 0.1852806 0.7133908 0.1747856 0.7123257 0.3001619 0.7789221 0.2965316 0.7880201 0.2876412 0.7835779 0.6571757 0.7722312 0.691314 0.8178588 0.659428 0.826326 0.7692773 0.8186135 0.7516563 0.7725037 0.7881541 0.7731333 0.6902051 0.7285682 0.6571757 0.7722312 0.6708797 0.7266069 0.8621668 0.8763022 0.889627 0.8917561 0.8594219 0.8918315 0.910672 0.7230209 0.9348037 0.7009105 0.9348038 0.7283566 0.8553276 0.7687078 0.8211559 0.8084763 0.819029 0.7652509 0.7516563 0.7725037 0.7962629 0.7308829 0.7881541 0.7731333 0.1896064 0.6729148 0.1806725 0.6852671 0.1823155 0.6649023 0.2684044 0.6833183 0.2630134 0.6685085 0.2727658 0.6633488 0.2918946 0.7624952 0.2876271 0.7754879 0.2828015 0.7624133 0.2099339 0.789374 0.2179332 0.8057254 0.2090115 0.8098022 0.8019819 0.1622904 0.8020581 0.1662328 0.7989751 0.1643531 0.8077117 0.1531003 0.8117007 0.1467157 0.8126163 0.1473494 0.8019819 0.1622904 0.8050951 0.1570846 0.8050951 0.1641177 0.8017455 0.1167348 0.8063449 0.115617 0.8058217 0.1173309 0.8126163 0.1473494 0.8148139 0.1466293 0.8157027 0.1470697 0.8161752 0.1426132 0.8145931 0.1446998 0.8145537 0.1422719 0.7589555 0.2982237 0.7517942 0.2989729 0.7430248 0.29615 0.8425115 0.3756599 0.8401938 0.3687496 0.8455589 0.3672741 0.7862556 0.4085413 0.786276 0.4141263 0.7794697 0.4116422 0.8019819 0.1622904 0.7986446 0.1573048 0.8018538 0.1562896 0.7723496 0.1176164 0.7652291 0.1154204 0.7728059 0.1157426 0.8455589 0.3672741 0.8537284 0.3634532 0.8476216 0.3703776 0.8455589 0.3672741 0.8441553 0.3611357 0.850686 0.3605437 0.8279619 0.300248 0.821154 0.2963584 0.8297788 0.2976198 0.8337778 0.3733037 0.8401938 0.3687496 0.8355951 0.3755976 0.7591645 0.3014297 0.7674295 0.2994946 0.76471 0.307524 0.179566 0.2766854 0.1903286 0.2816416 0.1790067 0.2788638 0.1867219 0.286663 0.1753568 0.2926662 0.177497 0.2850895 0.2524222 0.2185713 0.2433813 0.211134 0.2518575 0.2094257 0.1790067 0.2788638 0.1867219 0.286663 0.177497 0.2850895 0.2518575 0.2094257 0.2428202 0.203657 0.2512542 0.2009947 0.2472115 0.195286 0.2507115 0.1858633 0.2524222 0.1946294 0.1811769 0.3015279 0.1710094 0.3043591 0.1719197 0.2981001 0.183257 0.2944945 0.1719197 0.2981001 0.1753568 0.2926662 0.2512542 0.2009947 0.2472115 0.195286 0.2524222 0.1946294 0.2924706 0.2003632 0.2958601 0.2087039 0.2907236 0.2064535 0.2414516 0.1878637 0.2456929 0.178637 0.2507115 0.1858633 0.9312335 0.8900864 0.9147353 0.8760899 0.9312335 0.8631237 0.8325219 0.8257392 0.8211559 0.8084763 0.8583786 0.8029028 0.1702106 0.8263009 0.1640764 0.8284408 0.1614913 0.8243148 0.3089718 0.2142809 0.2993374 0.2130818 0.3071757 0.2105223 0.1640764 0.8284408 0.1693363 0.8331316 0.1633936 0.8318234 0.3164327 0.773236 0.3120181 0.7763347 0.3121523 0.7726609 0.167023 0.8489715 0.1553865 0.8538859 0.1543565 0.8470013 0.3120181 0.7763347 0.3079283 0.7720693 0.3121523 0.7726609 0.3217185 0.7207261 0.3179008 0.7175283 0.3236283 0.713747 0.3097811 0.6724045 0.3029197 0.6801082 0.3003863 0.6714506 0.2383718 0.8208729 0.2023708 0.83525 0.2144706 0.8034939 0.1693363 0.8331316 0.161464 0.83205 0.1633936 0.8318234 0.3118323 0.6541916 0.2997043 0.6614042 0.3029233 0.6519737 0.161464 0.83205 0.1628853 0.8388685 0.1548596 0.8405157 0.1693363 0.8331316 0.1745427 0.8386662 0.1628853 0.8388685 0.167023 0.8489715 0.1763716 0.8462436 0.1756501 0.8502393 0.1668993 0.8449622 0.1745427 0.8386662 0.1763716 0.8462436 0.1693363 0.8331316 0.1762875 0.8319274 0.1742408 0.8349422 0.171383 0.8301167 0.1795534 0.8282214 0.1762875 0.8319274 0.1915016 0.3223516 0.1820799 0.3224548 0.1793311 0.3162953 0.3168519 0.7784624 0.3117635 0.781777 0.3120181 0.7763347 0.2259464 0.8386978 0.2291653 0.8629024 0.2023708 0.83525 0.3120181 0.7763347 0.3072253 0.780188 0.3077942 0.7757431 0.3057661 0.2045748 0.2993374 0.2130818 0.2958601 0.2087039 0.3100438 0.6628726 0.3201831 0.6575488 0.321489 0.6668242 0.3097811 0.6724045 0.321489 0.6668242 0.3212632 0.6734287 0.164331 0.854174 0.1590846 0.8563597 0.1553865 0.8538859 0.3154274 0.7242362 0.3185862 0.7222296 0.3174382 0.7297077 0.3217185 0.7207261 0.3174382 0.7297077 0.3185862 0.7222296 0.1548596 0.8405157 0.1628853 0.8388685 0.1668993 0.8449622 0.3107597 0.6799361 0.3212632 0.6734287 0.3195939 0.6801082 0.167023 0.8489715 0.1716445 0.8554188 0.164331 0.854174 0.3100438 0.6628726 0.3003863 0.6714506 0.2997043 0.6614042 0.1668993 0.8449622 0.1543565 0.8470013 0.1548596 0.8405157 0.2324476 0.1791983 0.2230768 0.1903869 0.2210752 0.1794869 0.1802674 0.3074382 0.1965451 0.3060545 0.1957253 0.3138384 0.1903286 0.2816416 0.1950469 0.2892248 0.1867219 0.286663 0.1811769 0.3015279 0.1950663 0.2973199 0.1965451 0.3060545 0.183257 0.2944945 0.1950469 0.2892248 0.1950663 0.2973199 0.2414516 0.1878637 0.2271904 0.1970237 0.2230768 0.1903869 0.2430661 0.2180594 0.2326767 0.2108327 0.2433813 0.211134 0.2428202 0.203657 0.2326767 0.2108327 0.2317232 0.2030333 0.2428202 0.203657 0.2271904 0.1970237 0.2472115 0.195286 0.7962921 0.7151232 0.7660336 0.7195777 0.7694599 0.7099583 0.1957253 0.3138384 0.1793311 0.3162953 0.1802674 0.3074382 0.2941871 0.7126601 0.2792825 0.7018263 0.288109 0.7011673 0.3163381 0.7673401 0.3072177 0.7628326 0.3163381 0.7582326 0.3132312 0.7218492 0.3062184 0.7289317 0.2996095 0.7216817 0.1586041 0.7952122 0.1478506 0.7836357 0.1554924 0.7809979 0.1793311 0.3162953 0.1631889 0.3002729 0.1723422 0.2963716 0.2772428 0.3724874 0.2853662 0.3775488 0.2750054 0.3774214 0.2901756 0.2403485 0.2754368 0.2299919 0.2860951 0.2271111 0.2064751 0.6885474 0.202989 0.6719344 0.2156387 0.6754719 0.2772573 0.6912871 0.2919462 0.6704654 0.2904242 0.6903067 0.1478506 0.7836357 0.1497481 0.7706847 0.1554924 0.7809979 0.288109 0.7011673 0.2772573 0.6912871 0.2904242 0.6903067 0.1977242 0.6877936 0.209072 0.6963438 0.1962011 0.6950335 0.2920122 0.662687 0.2973031 0.6551349 0.2990506 0.6668293 0.3163381 0.7582326 0.3115578 0.7418288 0.3155871 0.7411507 0.1962011 0.6950335 0.208077 0.7162613 0.2037261 0.7173563 0.1497481 0.7706847 0.1268169 0.753167 0.1306533 0.750739 0.2230768 0.1903869 0.2095807 0.1929426 0.2210752 0.1794869 0.2095807 0.1929426 0.2157934 0.1778489 0.2210752 0.1794869 0.3025418 0.7406819 0.2852607 0.7303943 0.3025417 0.718084 0.2056342 0.723312 0.2140713 0.7321588 0.2093383 0.7335575 0.1280187 0.7424318 0.11722 0.7367718 0.1229507 0.7351186 0.2856885 0.6608449 0.2939315 0.6539892 0.2920122 0.662687 0.2874761 0.669193 0.2920122 0.662687 0.2919462 0.6704654 0.1268169 0.753167 0.1280187 0.7424318 0.1306533 0.750739 0.2037261 0.7173563 0.2154508 0.7206626 0.2056342 0.723312 0.2922986 0.6726241 0.2920122 0.662687 0.2990506 0.6668293 0.8165746 0.7175263 0.7962629 0.7308829 0.7962921 0.7151232 0.6841098 0.8373157 0.7065864 0.8335357 0.6999201 0.8464567 0.1903286 0.2816416 0.1991499 0.2814374 0.1976529 0.2843389 0.2524222 0.2185713 0.2430596 0.2215983 0.2430661 0.2180594 0.2430661 0.2180594 0.2308341 0.219245 0.2316035 0.2170849 0.659428 0.826326 0.6841098 0.8373157 0.6569377 0.836027 0.2099339 0.789374 0.2079101 0.7745409 0.2224868 0.7760747 0.3001619 0.7789221 0.2876412 0.7835779 0.2876271 0.7754879 0.2684044 0.6833183 0.2693576 0.6988463 0.2579717 0.6972575 0.190051 0.6896239 0.1904659 0.7019143 0.1777971 0.69974 0.7723496 0.1176164 0.7728059 0.1157426 0.7767122 0.1163704 0.2693576 0.6988463 0.2693426 0.7097162 0.2582369 0.7084057 0.8449966 0.7218018 0.8553276 0.7687078 0.819029 0.7652509 0.2224868 0.7760747 0.2079101 0.7745409 0.2157996 0.7623353 0.1777971 0.69974 0.1904659 0.7019143 0.1852806 0.7133908 0.3001619 0.7789221 0.3066418 0.7838104 0.2965316 0.7880201 0.6571757 0.7722312 0.6900384 0.7747896 0.691314 0.8178588 0.7692773 0.8186135 0.7464027 0.8186944 0.7516563 0.7725037 0.6902051 0.7285682 0.6900384 0.7747896 0.6571757 0.7722312 0.8621668 0.8763022 0.889627 0.8676409 0.889627 0.8917561 0.910672 0.7230209 0.9008128 0.6999476 0.9348037 0.7009105 0.8553276 0.7687078 0.8583786 0.8029028 0.8211559 0.8084763 0.7516563 0.7725037 0.7660336 0.7195777 0.7962629 0.7308829 0.1896064 0.6729148 0.190051 0.6896239 0.1806725 0.6852671 0.2684044 0.6833183 0.2578852 0.6849479 0.2630134 0.6685085 0.2918946 0.7624952 0.295701 0.7718162 0.2876271 0.7754879 0.2099339 0.789374 0.2194091 0.7901086 0.2179332 0.8057254 0.8019819 0.1622904 0.8050951 0.1641177 0.8020581 0.1662328 0.8077117 0.1531003 0.806618 0.1520098 0.8117007 0.1467157 0.8019819 0.1622904 0.8018538 0.1562896 0.8050951 0.1570846 0.8017455 0.1167348 0.8022589 0.1149411 0.8063449 0.115617 0.8126163 0.1473494 0.8117007 0.1467157 0.8148139 0.1466293 0.8161752 0.1426132 0.8161752 0.1450344 0.8145931 0.1446998 0.7589555 0.2982237 0.7591645 0.3014297 0.7517942 0.2989729 0.8425115 0.3756599 0.8355951 0.3755976 0.8401938 0.3687496 0.7862556 0.4085413 0.7922223 0.4144101 0.786276 0.4141263 0.8019819 0.1622904 0.7989751 0.1643531 0.7986446 0.1573048 0.7723496 0.1176164 0.7648205 0.1166363 0.7652291 0.1154204 0.8455589 0.3672741 0.850686 0.3605437 0.8537284 0.3634532 0.8455589 0.3672741 0.8401938 0.3687496 0.8441553 0.3611357 0.8279619 0.300248 0.8205441 0.3041726 0.821154 0.2963584 0.8337778 0.3733037 0.8441553 0.3611357 0.8401938 0.3687496 0.7591645 0.3014297 0.7589555 0.2982237 0.7674295 0.2994946 0.179566 0.2766854 0.1919463 0.2772725 0.1903286 0.2816416 0.1867219 0.286663 0.183257 0.2944945 0.1753568 0.2926662 0.2524222 0.2185713 0.2430661 0.2180594 0.2433813 0.211134 0.1790067 0.2788638 0.1903286 0.2816416 0.1867219 0.286663 0.2518575 0.2094257 0.2433813 0.211134 0.2428202 0.203657 0.2472115 0.195286 0.2414516 0.1878637 0.2507115 0.1858633 0.1811769 0.3015279 0.1802674 0.3074382 0.1710094 0.3043591 0.183257 0.2944945 0.1811769 0.3015279 0.1719197 0.2981001 0.2512542 0.2009947 0.2428202 0.203657 0.2472115 0.195286 0.2924706 0.2003632 0.3057661 0.2045748 0.2958601 0.2087039 0.2414516 0.1878637 0.2324476 0.1791983 0.2456929 0.178637 0.1702106 0.8263009 0.171383 0.8301167 0.1640764 0.8284408 0.3089718 0.2142809 0.2919577 0.2142809 0.2993374 0.2130818 0.1640764 0.8284408 0.171383 0.8301167 0.1693363 0.8331316 0.3164327 0.773236 0.3168519 0.7784624 0.3120181 0.7763347 0.167023 0.8489715 0.164331 0.854174 0.1553865 0.8538859 0.3120181 0.7763347 0.3077942 0.7757431 0.3079283 0.7720693 0.3217185 0.7207261 0.3185862 0.7222296 0.3179008 0.7175283 0.3097811 0.6724045 0.3107597 0.6799361 0.3029197 0.6801082 0.2383718 0.8208729 0.2259464 0.8386978 0.2023708 0.83525 0.1693363 0.8331316 0.1628853 0.8388685 0.161464 0.83205 0.3118323 0.6541916 0.3100438 0.6628726 0.2997043 0.6614042 0.1693363 0.8331316 0.1742408 0.8349422 0.1745427 0.8386662 0.167023 0.8489715 0.1668993 0.8449622 0.1763716 0.8462436 0.1668993 0.8449622 0.1628853 0.8388685 0.1745427 0.8386662 0.1693363 0.8331316 0.171383 0.8301167 0.1762875 0.8319274 0.171383 0.8301167 0.1702106 0.8263009 0.1795534 0.8282214 0.1899185 0.3240661 0.1820799 0.3224548 0.1915016 0.3223516 0.1820799 0.3224548 0.1667971 0.3160552 0.1793311 0.3162953 0.3168519 0.7784624 0.3168519 0.7860342 0.3117635 0.781777 0.2259464 0.8386978 0.2383717 0.8586348 0.2291653 0.8629024 0.3120181 0.7763347 0.3117635 0.781777 0.3072253 0.780188 0.3057661 0.2045748 0.3071757 0.2105223 0.2993374 0.2130818 0.3100438 0.6628726 0.3118323 0.6541916 0.3201831 0.6575488 0.3097811 0.6724045 0.3100438 0.6628726 0.321489 0.6668242 0.3217185 0.7207261 0.3236283 0.7297204 0.3174382 0.7297077 0.3107597 0.6799361 0.3097811 0.6724045 0.3212632 0.6734287 0.167023 0.8489715 0.1756501 0.8502393 0.1716445 0.8554188 0.3100438 0.6628726 0.3097811 0.6724045 0.3003863 0.6714506 0.1668993 0.8449622 0.167023 0.8489715 0.1543565 0.8470013 0.2324476 0.1791983 0.2414516 0.1878637 0.2230768 0.1903869 0.1802674 0.3074382 0.1811769 0.3015279 0.1965451 0.3060545 0.1903286 0.2816416 0.1976529 0.2843389 0.1950469 0.2892248 0.1811769 0.3015279 0.183257 0.2944945 0.1950663 0.2973199 0.183257 0.2944945 0.1867219 0.286663 0.1950469 0.2892248 0.2414516 0.1878637 0.2472115 0.195286 0.2271904 0.1970237 0.2430661 0.2180594 0.2316035 0.2170849 0.2326767 0.2108327 0.2428202 0.203657 0.2433813 0.211134 0.2326767 0.2108327 0.2428202 0.203657 0.2317232 0.2030333 0.2271904 0.1970237 0.7962921 0.7151232 0.7962629 0.7308829 0.7660336 0.7195777 0.1957253 0.3138384 0.1915016 0.3223516 0.1793311 0.3162953 0.2941871 0.7126601 0.2814834 0.7160938 0.2792825 0.7018263 0.3163381 0.7673401 0.3116123 0.7714059 0.3072177 0.7628326 0.3132312 0.7218492 0.3150724 0.728328 0.3062184 0.7289317 0.1586041 0.7952122 0.1476942 0.7998622 0.1478506 0.7836357 0.1793311 0.3162953 0.1667971 0.3160552 0.1631889 0.3002729 0.2772428 0.3724874 0.2867666 0.3713772 0.2853662 0.3775488 0.2901756 0.2403485 0.285765 0.2495445 0.2754368 0.2299919 0.2064751 0.6885474 0.1977242 0.6877936 0.202989 0.6719344 0.2772573 0.6912871 0.2874761 0.669193 0.2919462 0.6704654 0.1478506 0.7836357 0.1380341 0.7756398 0.1497481 0.7706847 0.288109 0.7011673 0.2792825 0.7018263 0.2772573 0.6912871 0.1977242 0.6877936 0.2064751 0.6885474 0.209072 0.6963438 0.2920122 0.662687 0.2939315 0.6539892 0.2973031 0.6551349 0.3163381 0.7582326 0.3072177 0.7628326 0.3115578 0.7418288 0.1962011 0.6950335 0.209072 0.6963438 0.208077 0.7162613 0.1497481 0.7706847 0.1380341 0.7756398 0.1268169 0.753167 0.2230768 0.1903869 0.2201937 0.1959105 0.2095807 0.1929426 0.3025418 0.7406819 0.2882375 0.7533165 0.2852607 0.7303943 0.2056342 0.723312 0.2154508 0.7206626 0.2140713 0.7321588 0.1280187 0.7424318 0.1170731 0.7467167 0.11722 0.7367718 0.2856885 0.6608449 0.2896491 0.6528499 0.2939315 0.6539892 0.2874761 0.669193 0.2856885 0.6608449 0.2920122 0.662687 0.1268169 0.753167 0.1170731 0.7467167 0.1280187 0.7424318 0.2037261 0.7173563 0.208077 0.7162613 0.2154508 0.7206626 0.2922986 0.6726241 0.2919462 0.6704654 0.2920122 0.662687 0.8165746 0.7175263 0.8125675 0.7332239 0.7962629 0.7308829 0.6841098 0.8373157 0.691314 0.8178588 0.7065864 0.8335357 0.1903286 0.2816416 0.1919463 0.2772725 0.1991499 0.2814374 0.2524222 0.2185713 0.2523009 0.2226932 0.2430596 0.2215983 0.2430661 0.2180594 0.2430596 0.2215983 0.2308341 0.219245 0.659428 0.826326 0.691314 0.8178588 0.6841098 0.8373157</float_array>
          <technique_common>
            <accessor source="#Cube_001-mesh-map-0-array" count="732" stride="2">
              <param name="S" type="float"/>
              <param name="T" type="float"/>
            </accessor>
          </technique_common>
        </source>
        <vertices id="Cube_001-mesh-vertices">
          <input semantic="POSITION" source="#Cube_001-mesh-positions"/>
        </vertices>
        <triangles material="deri-material" count="126">
          <input semantic="VERTEX" source="#Cube_001-mesh-vertices" offset="0"/>
          <input semantic="NORMAL" source="#Cube_001-mesh-normals" offset="1"/>
          <input semantic="TEXCOORD" source="#Cube_001-mesh-map-0" offset="2" set="0"/>
          <p>20 0 0 3 0 1 21 0 2 3 1 3 22 1 4 21 1 5 22 2 6 5 2 7 23 2 8 23 3 9 1 3 10 20 3 11 7 5 15 11 5 16 5 5 17 3 7 21 8 7 22 9 7 23 1 8 24 11 8 25 8 8 26 3 9 27 10 9 28 7 9 29 4 17 51 20 17 52 0 17 53 22 18 54 4 18 55 6 18 56 2 19 57 22 19 58 6 19 59 20 20 60 2 20 61 0 20 62 24 21 63 27 21 64 25 21 65 24 23 69 33 23 70 26 23 71 24 30 90 32 30 91 31 30 92 84 50 150 57 50 151 61 50 152 57 52 156 81 52 157 68 52 158 62 53 159 89 53 160 65 53 161 97 54 162 72 54 163 95 54 164 89 55 165 63 55 166 65 55 167 71 56 168 79 56 169 73 56 170 98 57 171 70 57 172 96 57 173 63 58 174 88 58 175 75 58 176 81 59 177 67 59 178 68 59 179 88 60 180 78 60 181 75 60 182 67 61 183 80 61 184 77 61 185 81 62 186 74 62 187 80 62 188 97 63 189 76 63 190 94 63 191 82 64 192 74 64 193 76 64 194 81 65 195 66 65 196 69 65 197 85 66 198 64 66 199 66 66 200 87 68 204 57 68 205 89 68 206 86 69 207 67 69 208 88 69 209 89 70 210 68 70 211 86 70 212 91 72 216 67 72 217 77 72 218 98 73 219 77 73 220 95 73 221 79 74 222 93 74 223 72 74 224 72 75 225 93 75 226 92 75 227 71 76 228 92 76 229 93 76 230 77 77 231 80 77 232 82 77 233 92 78 234 95 78 235 72 78 236 97 79 237 73 79 238 79 79 239 91 80 240 96 80 241 78 80 242 82 81 243 95 81 244 77 81 245 116 93 279 112 93 280 111 93 281 109 94 282 120 94 283 118 94 284 116 95 285 109 95 286 114 95 287 117 96 288 110 96 289 112 96 290 109 100 300 115 100 301 114 100 302 121 101 303 124 101 304 120 101 305 110 102 306 121 102 307 112 102 308 111 103 309 121 103 310 120 103 311 110 104 312 118 104 313 119 104 314 130 105 315 126 105 316 131 105 317 118 106 318 124 106 319 122 106 320 119 107 321 122 107 322 123 107 323 121 108 324 123 108 325 125 108 326 129 111 333 127 111 334 126 111 335 132 112 336 126 112 337 127 112 338 133 113 339 127 113 340 128 113 341 133 114 342 129 114 343 130 114 344 125 115 345 130 115 346 124 115 347 123 116 348 133 116 349 125 116 350 123 117 351 131 117 352 132 117 353 122 118 354 130 118 355 131 118 356 20 125 375 1 125 376 3 125 377 3 126 378 7 126 379 22 126 380 22 127 381 7 127 382 5 127 383 23 128 384 5 128 385 1 128 386 7 130 390 10 130 391 11 130 392 3 132 396 1 132 397 8 132 398 1 133 399 5 133 400 11 133 401 3 134 402 9 134 403 10 134 404 4 142 426 23 142 427 20 142 428 22 143 429 23 143 430 4 143 431 2 144 432 21 144 433 22 144 434 20 145 435 21 145 436 2 145 437 24 146 438 26 146 439 27 146 440 24 148 444 31 148 445 33 148 446 24 155 465 25 155 466 32 155 467 84 173 519 85 173 520 57 173 521 57 175 525 85 175 526 81 175 527 62 176 528 87 176 529 89 176 530 97 177 531 79 177 532 72 177 533 89 178 534 86 178 535 63 178 536 71 179 537 93 179 538 79 179 539 98 180 540 92 180 541 70 180 542 63 181 543 86 181 544 88 181 545 81 182 546 80 182 547 67 182 548 88 183 549 91 183 550 78 183 551 81 184 552 69 184 553 74 184 554 97 185 555 82 185 556 76 185 557 82 186 558 80 186 559 74 186 560 81 187 561 85 187 562 66 187 563 85 188 564 84 188 565 64 188 566 87 191 573 61 191 574 57 191 575 86 192 576 68 192 577 67 192 578 89 193 579 57 193 580 68 193 581 91 195 585 88 195 586 67 195 587 98 196 588 91 196 589 77 196 590 71 197 591 70 197 592 92 197 593 92 198 594 98 198 595 95 198 596 97 199 597 94 199 598 73 199 599 91 200 600 98 200 601 96 200 602 82 201 603 97 201 604 95 201 605 116 213 639 117 213 640 112 213 641 109 214 642 111 214 643 120 214 644 116 215 645 111 215 646 109 215 647 117 216 648 115 216 649 110 216 650 109 220 660 110 220 661 115 220 662 121 221 663 125 221 664 124 221 665 110 222 666 119 222 667 121 222 668 111 223 669 112 223 670 121 223 671 110 224 672 109 224 673 118 224 674 130 225 675 129 225 676 126 225 677 118 226 678 120 226 679 124 226 680 119 227 681 118 227 682 122 227 683 121 228 684 119 228 685 123 228 686 129 230 690 128 230 691 127 230 692 132 231 693 131 231 694 126 231 695 133 232 696 132 232 697 127 232 698 133 233 699 128 233 700 129 233 701 125 234 702 133 234 703 130 234 704 123 235 705 132 235 706 133 235 707 123 236 708 122 236 709 131 236 710 122 237 711 124 237 712 130 237 713</p>
        </triangles>
        <triangles material="ayaaqabi_alt-material" count="26">
          <input semantic="VERTEX" source="#Cube_001-mesh-vertices" offset="0"/>
          <input semantic="NORMAL" source="#Cube_001-mesh-normals" offset="1"/>
          <input semantic="TEXCOORD" source="#Cube_001-mesh-map-0" offset="2" set="0"/>
          <p>10 6 18 15 6 19 11 6 20 12 10 30 19 10 31 16 10 32 9 11 33 12 11 34 13 11 35 11 12 36 12 12 37 8 12 38 9 13 39 14 13 40 10 13 41 14 14 42 17 14 43 18 14 44 14 15 45 19 15 46 15 15 47 12 16 48 17 16 49 13 16 50 17 48 144 59 48 145 18 48 146 60 49 147 19 49 148 18 49 149 137 91 273 16 91 274 134 91 275 135 119 357 17 119 358 137 119 359 138 120 360 60 120 361 136 120 362 16 124 372 138 124 373 134 124 374 10 131 393 14 131 394 15 131 395 12 135 405 15 135 406 19 135 407 9 136 408 8 136 409 12 136 410 11 137 411 15 137 412 12 137 413 9 138 414 13 138 415 14 138 416 14 139 417 13 139 418 17 139 419 14 140 420 18 140 421 19 140 422 12 141 423 16 141 424 17 141 425 137 211 633 17 211 634 16 211 635 135 238 714 59 238 715 17 238 716 138 239 717 19 239 718 60 239 719 16 243 729 19 243 730 138 243 731</p>
        </triangles>
        <triangles material="short-material" count="64">
          <input semantic="VERTEX" source="#Cube_001-mesh-vertices" offset="0"/>
          <input semantic="NORMAL" source="#Cube_001-mesh-normals" offset="1"/>
          <input semantic="TEXCOORD" source="#Cube_001-mesh-map-0" offset="2" set="0"/>
          <p>134 37 111 103 37 112 40 37 113 102 38 114 46 38 115 43 38 116 41 39 117 108 39 118 44 39 119 40 40 120 102 40 121 43 40 122 44 41 123 107 41 124 47 41 125 105 42 126 50 42 127 54 42 128 101 43 129 49 43 130 53 43 131 104 44 132 53 44 133 46 44 134 47 45 135 105 45 136 54 45 137 56 46 138 87 46 139 62 46 140 99 47 141 56 47 142 50 47 143 83 51 153 61 51 154 55 51 155 58 67 201 84 67 202 113 67 203 90 71 213 61 71 214 87 71 215 90 82 246 49 82 247 55 82 248 100 83 249 52 83 250 51 83 251 103 84 252 45 84 253 102 84 254 101 85 255 48 85 256 52 85 257 104 86 258 45 86 259 48 86 260 99 87 261 53 87 262 49 87 263 106 88 264 43 88 265 108 88 266 107 89 267 43 89 268 46 89 269 107 90 270 53 90 271 105 90 272 51 92 276 113 92 277 100 92 278 113 97 291 115 97 292 117 97 293 49 98 294 116 98 295 114 98 296 100 99 297 117 99 298 116 99 299 49 109 327 115 109 328 55 109 329 115 110 330 83 110 331 55 110 332 103 121 363 136 121 364 42 121 365 41 122 366 137 122 367 106 122 368 106 123 369 134 123 370 40 123 371 134 162 486 138 162 487 103 162 488 102 163 489 104 163 490 46 163 491 41 164 492 106 164 493 108 164 494 40 165 495 103 165 496 102 165 497 44 166 498 108 166 499 107 166 500 105 167 501 99 167 502 50 167 503 101 168 504 100 168 505 49 168 506 104 169 507 101 169 508 53 169 509 47 170 510 107 170 511 105 170 512 56 171 513 90 171 514 87 171 515 99 172 516 90 172 517 56 172 518 83 174 522 84 174 523 61 174 524 64 189 567 84 189 568 58 189 569 84 190 570 83 190 571 113 190 572 90 194 582 55 194 583 61 194 584 90 202 606 99 202 607 49 202 608 100 203 609 101 203 610 52 203 611 103 204 612 42 204 613 45 204 614 101 205 615 104 205 616 48 205 617 104 206 618 102 206 619 45 206 620 99 207 621 105 207 622 53 207 623 106 208 624 40 208 625 43 208 626 107 209 627 108 209 628 43 209 629 107 210 630 46 210 631 53 210 632 51 212 636 58 212 637 113 212 638 113 217 651 83 217 652 115 217 653 49 218 654 100 218 655 116 218 656 100 219 657 113 219 658 117 219 659 49 229 687 114 229 688 115 229 689 103 240 720 138 240 721 136 240 722 41 241 723 135 241 724 137 241 725 106 242 726 137 242 727 134 242 728</p>
        </triangles>
        <triangles material="ayaqqabi_ust-material" count="16">
          <input semantic="VERTEX" source="#Cube_001-mesh-vertices" offset="0"/>
          <input semantic="NORMAL" source="#Cube_001-mesh-normals" offset="1"/>
          <input semantic="TEXCOORD" source="#Cube_001-mesh-map-0" offset="2" set="0"/>
          <p>34 27 81 29 27 82 37 27 83 2 28 84 30 28 85 28 28 86 2 29 87 29 29 88 0 29 89 28 32 96 37 32 97 29 32 98 28 33 99 38 33 100 39 33 101 6 34 102 35 34 103 36 34 104 36 35 105 30 35 106 6 35 107 0 36 108 35 36 109 4 36 110 34 152 456 0 152 457 29 152 458 2 153 459 6 153 460 30 153 461 2 154 462 28 154 463 29 154 464 28 157 471 39 157 472 37 157 473 28 158 474 30 158 475 38 158 476 6 159 477 4 159 478 35 159 479 36 160 480 38 160 481 30 160 482 0 161 483 34 161 484 35 161 485</p>
        </triangles>
        <triangles material="ayaaqabi_alt-material" count="12">
          <input semantic="VERTEX" source="#Cube_001-mesh-vertices" offset="0"/>
          <input semantic="NORMAL" source="#Cube_001-mesh-normals" offset="1"/>
          <input semantic="TEXCOORD" source="#Cube_001-mesh-map-0" offset="2" set="0"/>
          <p>34 4 12 27 4 13 35 4 14 36 22 66 33 22 67 38 22 68 35 24 72 26 24 73 36 24 74 38 25 75 31 25 76 39 25 77 37 26 78 31 26 79 32 26 80 34 31 93 32 31 94 25 31 95 34 129 387 25 129 388 27 129 389 36 147 441 26 147 442 33 147 443 35 149 447 27 149 448 26 149 449 38 150 450 33 150 451 31 150 452 37 151 453 39 151 454 31 151 455 34 156 468 37 156 469 32 156 470</p>
        </triangles>
      </mesh>
    </geometry>
  </library_geometries>
  <library_visual_scenes>
    <visual_scene id="Scene" name="Scene">
      <node id="BASE_Low_Poly_Man" name="BASE_Low Poly Man" type="NODE">
        <matrix sid="transform">1 0 0 0 0 1 0 0.2731743 0 0 1 0 0 0 0 1</matrix>
        <instance_geometry url="#Cube_001-mesh" name="BASE_Low Poly Man">
          <bind_material>
            <technique_common>
              <instance_material symbol="deri-material" target="#deri-material">
                <bind_vertex_input semantic="UVMap" input_semantic="TEXCOORD" input_set="0"/>
              </instance_material>
              <instance_material symbol="ayaaqabi_alt-material" target="#ayaaqabi_alt-material">
                <bind_vertex_input semantic="UVMap" input_semantic="TEXCOORD" input_set="0"/>
              </instance_material>
              <instance_material symbol="short-material" target="#short-material">
                <bind_vertex_input semantic="UVMap" input_semantic="TEXCOORD" input_set="0"/>
              </instance_material>
              <instance_material symbol="ayaqqabi_ust-material" target="#ayaqqabi_ust-material">
                <bind_vertex_input semantic="UVMap" input_semantic="TEXCOORD" input_set="0"/>
              </instance_material>
              <instance_material symbol="ayaaqabi_alt-material" target="#ayaaqabi_alt-material">
                <bind_vertex_input semantic="UVMap" input_semantic="TEXCOORD" input_set="0"/>
              </instance_material>
            </technique_common>
          </bind_material>
        </instance_geometry>
      </node>
    </visual_scene>
  </library_visual_scenes>
  <scene>
    <instance_visual_scene url="#Scene"/>
  </scene>
</COLLADA>